<svg xmlns="http://www.w3.org/2000/svg" xmlns:xlink="http://www.w3.org/1999/xlink" viewBox="0,0,256,256" width="100px" height="100px" fill-rule="nonzero"><g fill="#ab20fd" fill-rule="nonzero" stroke="none" stroke-width="1" stroke-linecap="butt" stroke-linejoin="miter" stroke-miterlimit="10" stroke-dasharray="" stroke-dashoffset="0" font-family="none" font-weight="none" font-size="none" text-anchor="none" style="mix-blend-mode: normal"><g transform="scale(2.56,2.56)"><path d="M29.42969,17c-6.83144,0 -12.42969,5.59824 -12.42969,12.42969v41.14062c0,6.83145 5.59824,12.42969 12.42969,12.42969h41.14062c6.83145,0 12.42969,-5.5972 12.42969,-12.42773v-41.14258c0,-6.83144 -5.5972,-12.42969 -12.42773,-12.42969zM29.42969,19h41.14258c5.73947,0 10.42773,4.68913 10.42773,10.42969v41.14258c0,5.73947 -4.68913,10.42773 -10.42969,10.42773h-41.14062c-5.74056,0 -10.42969,-4.68913 -10.42969,-10.42969v-41.14062c0,-5.74056 4.68913,-10.42969 10.42969,-10.42969zM29.42969,22c-4.09222,0 -7.42969,3.33848 -7.42969,7.42969v41.14062c0,4.09222 3.33848,7.42969 7.42969,7.42969h41.14062c4.09222,0 7.42969,-3.33848 7.42969,-7.42969v-4.07031c0.00255,-0.18032 -0.09219,-0.34804 -0.24794,-0.43894c-0.15575,-0.0909 -0.34838,-0.0909 -0.50413,0c-0.15575,0.0909 -0.25049,0.25863 -0.24794,0.43894v4.07031c0,3.5488 -2.87991,6.42969 -6.42969,6.42969h-41.14062c-3.5488,0 -6.42969,-2.87991 -6.42969,-6.42969v-41.14062c0,-3.5488 2.87991,-6.42969 6.42969,-6.42969h4.07031c0.18032,0.00255 0.34804,-0.09219 0.43894,-0.24794c0.0909,-0.15575 0.0909,-0.34838 0,-0.50413c-0.0909,-0.15575 -0.25863,-0.25049 -0.43894,-0.24794zM36.5,22c-0.18032,-0.00255 -0.34804,0.09219 -0.43894,0.24794c-0.0909,0.15575 -0.0909,0.34838 0,0.50413c0.0909,0.15575 0.25863,0.25049 0.43894,0.24794h6c0.18032,0.00255 0.34804,-0.09219 0.43894,-0.24794c0.0909,-0.15575 0.0909,-0.34838 0,-0.50413c-0.0909,-0.15575 -0.25863,-0.25049 -0.43894,-0.24794zM45.5,22c-0.18032,-0.00255 -0.34804,0.09219 -0.43894,0.24794c-0.0909,0.15575 -0.0909,0.34838 0,0.50413c0.0909,0.15575 0.25863,0.25049 0.43894,0.24794h3c0.18032,0.00255 0.34804,-0.09219 0.43894,-0.24794c0.0909,-0.15575 0.0909,-0.34838 0,-0.50413c-0.0909,-0.15575 -0.25863,-0.25049 -0.43894,-0.24794zM51.5,22c-0.18032,-0.00255 -0.34804,0.09219 -0.43894,0.24794c-0.0909,0.15575 -0.0909,0.34838 0,0.50413c0.0909,0.15575 0.25863,0.25049 0.43894,0.24794h19.07031c3.5488,0 6.42969,2.87991 6.42969,6.42969v19.07031c-0.00255,0.18032 0.09219,0.34804 0.24794,0.43894c0.15575,0.0909 0.34838,0.0909 0.50413,0c0.15575,-0.0909 0.25049,-0.25863 0.24794,-0.43894v-19.07031c0,-4.09222 -3.33848,-7.42969 -7.42969,-7.42969zM52.96094,27.58789c-0.31704,0.01113 -0.60999,0.17201 -0.7895,0.43357c-0.17951,0.26156 -0.22428,0.59277 -0.12065,0.8926c0.64723,1.96097 0.453,3.28124 -0.14453,4.44922c-0.59754,1.16798 -1.68949,2.19273 -2.95703,3.19531c-1.26754,1.00258 -2.69101,1.97005 -3.85742,3.16211c-1.16641,1.19206 -2.0918,2.6991 -2.0918,4.58008c0,4.84072 4.4082,7.1543 4.4082,7.1543c0.31611,0.1669 0.69726,0.15245 0.99982,-0.03792c0.30256,-0.19037 0.48054,-0.52772 0.46688,-0.88492c-0.01366,-0.35721 -0.21689,-0.67998 -0.5331,-0.84668c0,0 -3.3418,-1.76548 -3.3418,-5.38477c0,-1.25003 0.55462,-2.19351 1.52148,-3.18164c0.96687,-0.98813 2.32888,-1.93302 3.66797,-2.99219c1.33909,-1.05917 2.67555,-2.24386 3.49805,-3.85156c0.8225,-1.60771 1.04099,-3.62725 0.26172,-5.98828c-0.13493,-0.42863 -0.53918,-0.71464 -0.98828,-0.69922zM56.98828,36.04102c-0.09064,0.00148 -0.18066,0.01528 -0.26758,0.04102c-1.57119,0.43946 -3.4025,1.37566 -4.92773,2.6875c-1.52523,1.31184 -2.79297,3.05066 -2.79297,5.12109c0,1.6693 0.8537,2.77174 1.50586,3.45508c0.32608,0.34167 0.59306,0.60966 0.74414,0.82813c0.15108,0.21846 0.20703,0.35086 0.20703,0.60742c0,1.4667 -0.76758,1.87891 -0.76758,1.87891c-0.29627,0.20024 -0.46319,0.54334 -0.43787,0.90003c0.02531,0.35669 0.23902,0.67278 0.56059,0.82917c0.32158,0.15639 0.70216,0.12933 0.99837,-0.071c0,0 1.64648,-1.21981 1.64648,-3.53711c0,-0.68944 -0.25094,-1.29645 -0.56055,-1.74414c-0.30961,-0.44769 -0.65714,-0.77031 -0.94531,-1.07227c-0.57634,-0.60391 -0.95117,-1.00252 -0.95117,-2.07422c0,-1.22257 0.82618,-2.51356 2.0957,-3.60547c1.26952,-1.09191 2.93225,-1.93281 4.16406,-2.27734c0.48863,-0.12931 0.80396,-0.60287 0.73485,-1.10357c-0.06911,-0.5007 -0.50095,-0.87112 -1.00633,-0.86323zM60.28906,50.20508c-0.87143,-0.02016 -1.52539,0.16211 -1.52539,0.16211c-0.35447,0.08062 -0.63727,0.34723 -0.73863,0.69634c-0.10136,0.3491 -0.00531,0.72571 0.25087,0.98363c0.25617,0.25792 0.63212,0.35652 0.98191,0.25753c0,0 0.84368,-0.18558 1.55859,-0.03906c0.35746,0.07326 0.63598,0.20944 0.83203,0.42969c0.19605,0.22025 0.37305,0.56515 0.37305,1.30469c0,1.3525 -1.04429,2.4933 -2.26953,3.33398c-1.22524,0.84069 -2.4668,1.27539 -2.4668,1.27539c-0.3378,0.11683 -0.58759,0.40501 -0.65527,0.75598c-0.06768,0.35096 0.05705,0.71137 0.32719,0.94542c0.27014,0.23405 0.64463,0.30619 0.98238,0.18923c0,0 1.4636,-0.50226 2.94336,-1.51758c1.47976,-1.01532 3.13867,-2.65092 3.13867,-4.98242c0,-1.10246 -0.3229,-2.01014 -0.87891,-2.63477c-0.55601,-0.62463 -1.28049,-0.92635 -1.92578,-1.05859c-0.32265,-0.06612 -0.63726,-0.09484 -0.92773,-0.10156zM42.57031,50.48633c-0.05704,0.001 -0.11389,0.00688 -0.16992,0.01758c0,0 -1.20117,0.21071 -2.43945,0.63867c-0.61914,0.21398 -1.25341,0.47565 -1.80859,0.85352c-0.55518,0.37786 -1.15234,0.96105 -1.15234,1.8418c0,0.44442 0.25412,0.81615 0.48438,1.01953c0.23026,0.20338 0.46078,0.3137 0.70703,0.41211c0.46899,0.18742 1.0263,0.30362 1.67188,0.40234c-0.01353,0.01408 -0.04339,0.02687 -0.05664,0.04102c-0.48092,0.51309 -0.83396,1.16478 -0.71484,1.88672c0.11912,0.72194 0.65683,1.19985 1.20117,1.49219c0.43942,0.23599 0.98352,0.36362 1.54688,0.48828c-0.42414,0.455 -0.70593,0.94241 -0.80859,1.52148c-0.10107,0.57006 0.09944,1.21604 0.47656,1.63086c0.37712,0.41482 0.85757,0.65692 1.40234,0.83594c2.17911,0.71606 5.79451,0.53915 10.67773,-0.49023c0.35444,-0.06882 0.64427,-0.32334 0.7583,-0.66593c0.11403,-0.34258 0.03454,-0.72003 -0.20795,-0.98753c-0.2425,-0.26751 -0.61036,-0.38353 -0.96245,-0.30357c-4.70878,0.99261 -8.28124,0.99357 -9.64062,0.54688c-0.30847,-0.10136 -0.44282,-0.20839 -0.49609,-0.25586c0.02728,-0.07608 0.39698,-0.70754 1.52539,-1.45898c0.06796,-0.04436 0.13027,-0.09683 0.18555,-0.15625c2.79253,0.12993 6.09676,-0.05546 9.50781,-0.82617c0.35239,-0.07481 0.63731,-0.33336 0.7459,-0.67685c0.10858,-0.34349 0.02405,-0.71883 -0.22131,-0.9826c-0.24535,-0.26377 -0.61361,-0.37521 -0.96404,-0.29172c-4.21223,0.95173 -8.81048,1.15602 -11.25,0.71094c-0.60988,-0.11127 -1.08138,-0.26878 -1.33008,-0.40234c-0.07244,-0.0389 -0.08015,-0.04906 -0.10937,-0.07031c0.02609,-0.04088 0.04439,-0.07923 0.13672,-0.17773c0.25222,-0.26909 0.77252,-0.66791 1.57227,-1.11719c0.05832,-0.0322 0.11328,-0.07015 0.16406,-0.11328c0.74074,0.02837 1.31134,0.1203 2.13086,0.11133c3.98863,-0.04369 8.63186,-0.50645 11.69141,-1.58984c0.34493,-0.11306 0.60152,-0.40414 0.67041,-0.76053c0.06889,-0.35639 -0.06073,-0.72213 -0.33867,-0.9556c-0.27794,-0.23347 -0.66057,-0.29801 -0.99971,-0.16863c-2.60545,0.9226 -7.20625,1.43254 -11.04687,1.47461c-1.92031,0.02103 -3.6668,-0.0705 -4.87109,-0.24805c-0.33805,-0.04984 -0.49602,-0.10932 -0.73242,-0.16797c0.30497,-0.17575 0.67417,-0.36131 1.10938,-0.51172c1.04972,-0.36279 2.13672,-0.56055 2.13672,-0.56055c0.51618,-0.08645 0.87842,-0.55624 0.83076,-1.07744c-0.04766,-0.5212 -0.4891,-0.9175 -1.0124,-0.90889zM77.49219,59.99219c-0.13261,0.00207 -0.25896,0.05673 -0.35127,0.15197c-0.0923,0.09523 -0.14299,0.22324 -0.14092,0.35584v3c-0.00255,0.18032 0.09219,0.34804 0.24794,0.43894c0.15575,0.0909 0.34838,0.0909 0.50413,0c0.15575,-0.0909 0.25049,-0.25863 0.24794,-0.43894v-3c0.00212,-0.13532 -0.0507,-0.26572 -0.1464,-0.36141c-0.0957,-0.0957 -0.22609,-0.14852 -0.36141,-0.1464zM38.04297,63.19922c-0.05682,-0.00158 -0.11366,0.00169 -0.16992,0.00977c0,0 -1.03591,0.12814 -2.11328,0.45508c-0.53869,0.16347 -1.09505,0.36857 -1.59766,0.69727c-0.50261,0.32869 -1.0625,0.88783 -1.0625,1.70508c0,0.46634 0.22004,0.90378 0.49414,1.20117c0.2741,0.29739 0.59604,0.50058 0.95703,0.67578c0.72198,0.35041 1.62467,0.58816 2.72461,0.7832c2.19988,0.39009 5.17951,0.57422 8.59961,0.57422c4.02102,0 8.38854,-0.34794 11.57227,-1.02734c1.59186,-0.3397 2.87329,-0.72552 3.79883,-1.35547c0.46277,-0.31497 0.89521,-0.73148 1.03906,-1.36719c0.14385,-0.63571 -0.13371,-1.30372 -0.54492,-1.75586c-0.37161,-0.40882 -1.00427,-0.43899 -1.41309,-0.06738c-0.40882,0.37161 -0.43899,1.00427 -0.06738,1.41309l0.00195,0.00195c-0.03372,0.03371 -0.05907,0.06558 -0.14062,0.12109c-0.46509,0.31655 -1.61666,0.73794 -3.0918,1.05273c-2.95028,0.62959 -7.25132,0.98438 -11.1543,0.98438c-3.3469,0 -6.25413,-0.18905 -8.25,-0.54297c-0.99794,-0.17696 -1.77073,-0.40532 -2.19922,-0.61328c-0.10077,-0.04891 -0.11064,-0.0694 -0.16992,-0.10937c0.22864,-0.14953 0.64767,-0.32463 1.08398,-0.45703c0.87262,-0.26481 1.78711,-0.38672 1.78711,-0.38672c0.51789,-0.06306 0.90031,-0.51363 0.87833,-1.03489c-0.02197,-0.52126 -0.44095,-0.93805 -0.96232,-0.9573zM63.96289,66.99023c-0.26014,-0.00415 -0.51166,0.09323 -0.70117,0.27148c-2.61696,2.38576 -8.18005,3.23626 -13.06836,3.29492c-4.88831,0.05866 -9.04492,-0.55664 -9.04492,-0.55664c-0.35536,-0.05645 -0.71364,0.08234 -0.93824,0.36345c-0.2246,0.28111 -0.28088,0.66119 -0.14738,0.99532c0.1335,0.33413 0.43619,0.57079 0.79265,0.61975c0,0 4.29334,0.63896 9.36328,0.57813c5.06994,-0.06084 10.97458,-0.70412 14.39063,-3.81836c0.30836,-0.27359 0.41726,-0.70836 0.27427,-1.095c-0.14299,-0.38664 -0.50857,-0.64593 -0.92075,-0.65305z"></path></g></g></svg>